<?xml version="1.0" standalone="no"?>
<!DOCTYPE svg PUBLIC "-//W3C//DTD SVG 20010904//EN"
 "http://www.w3.org/TR/2001/REC-SVG-20010904/DTD/svg10.dtd">
<svg version="1.0" xmlns="http://www.w3.org/2000/svg"
 width="512.000000pt" height="512.000000pt" viewBox="0 0 512.000000 512.000000"
 preserveAspectRatio="xMidYMid meet">
<metadata>
Created by potrace 1.11, written by Peter Selinger 2001-2013
</metadata>
<g transform="translate(0.000000,512.000000) scale(0.100000,-0.100000)"
fill="#000000" stroke="none">
<path d="M0 2560 l0 -2560 2560 0 2560 0 0 2560 0 2560 -2560 0 -2560 0 0
-2560z m2665 1679 c222 -19 386 -60 538 -133 268 -129 429 -322 473 -566 65
-362 -109 -674 -469 -840 l-81 -37 54 -18 c166 -54 340 -167 437 -284 61 -74
134 -215 159 -306 25 -92 30 -323 9 -427 -31 -156 -111 -308 -229 -436 -191
-205 -480 -323 -926 -377 -316 -38 -1034 -27 -1317 20 l-33 6 0 1673 0 1674
76 11 c347 51 955 70 1309 40z"/>
<path d="M2188 3690 c-70 -5 -132 -11 -138 -15 -7 -4 -10 -137 -10 -402 l0
-395 213 5 c237 6 327 22 438 78 194 98 271 287 197 485 -28 76 -87 137 -171
179 -123 60 -285 80 -529 65z"/>
<path d="M2040 1851 l0 -480 46 -7 c25 -3 134 -4 242 -1 159 4 212 9 276 26
229 63 356 191 386 389 21 132 -22 281 -104 364 -132 135 -320 188 -663 188
l-183 0 0 -479z"/>
</g>
</svg>
